<svg xmlns="http://www.w3.org/2000/svg" viewBox="0 0 128 128" width="128" height="128">
  <rect width="128" height="128" rx="24" fill="#1a1a2e"/>
  <path d="M48 40l-8 8 24 24 24-24-8-8-16 16z" fill="#e67e22" opacity="0.3"/>
  <path d="M44 76l6-6 8 8-6 6a6 6 0 0 1-8 0 6 6 0 0 1 0-8z" fill="#e67e22"/>
  <path d="M84 76l-6-6-8 8 6 6a6 6 0 0 0 8 0 6 6 0 0 0 0-8z" fill="#e67e22"/>
  <path d="M56 44l8-8 8 8-8 8z" fill="#3498db"/>
  <text x="64" y="108" text-anchor="middle" fill="#7f8c8d" font-family="Segoe UI,sans-serif" font-size="11" font-weight="600">REPAIR</text>
</svg>